<svg width="40" height="40" viewBox="0 0 40 40" fill="none" xmlns="http://www.w3.org/2000/svg">
<g clip-path="url(#clip0_0_1)">
<rect width="40" height="40" fill="#00000000"/>
<g clip-path="url(#clip1_0_1)">
<path d="M37 13.4025H35.8278V14.5989H37V13.4025Z" fill="#568417"/>
<path d="M37 12.1992H35.8278V13.4025H37V12.1992Z" fill="#2E6500"/>
<path d="M37 11.0028H35.8278V12.2062H37V11.0028Z" fill="#79B430"/>
<path d="M37 9.79944H35.8278V11.0028H37V9.79944Z" fill="#2E6500"/>
<path d="M35.8278 13.4025H34.6556V14.5989H35.8278V13.4025Z" fill="#568417"/>
<path d="M35.8278 12.1992H34.6556V13.4025H35.8278V12.1992Z" fill="#2E6500"/>
<path d="M35.8278 11.0028H34.6556V12.2062H35.8278V11.0028Z" fill="#2E6500"/>
<path d="M35.8278 9.79944H34.6556V11.0028H35.8278V9.79944Z" fill="#2E6500"/>
<path d="M34.6556 15.8023H33.4834V17.0056H34.6556V15.8023Z" fill="#2E6500"/>
<path d="M34.6556 14.5989H33.4834V15.8023H34.6556V14.5989Z" fill="#2E6500"/>
<path d="M34.6556 13.4025H33.4834V14.5989H34.6556V13.4025Z" fill="#568417"/>
<path d="M34.6556 12.1992H33.4834V13.4025H34.6556V12.1992Z" fill="#2E6500"/>
<path d="M34.6556 11.0028H33.4834V12.2062H34.6556V11.0028Z" fill="#2E6500"/>
<path d="M34.6556 9.79944H33.4834V11.0028H34.6556V9.79944Z" fill="#2E6500"/>
<path d="M34.6556 8.59606H33.4834V9.79944H34.6556V8.59606Z" fill="#2E6500"/>
<path d="M34.6556 7.39972H33.4834V8.59606H34.6556V7.39972Z" fill="#2E6500"/>
<path d="M34.6556 6.20338H33.4834V7.40676H34.6556V6.20338Z" fill="#2E6500"/>
<path d="M33.4834 18.202H32.3112V19.4053H33.4834V18.202Z" fill="#568417"/>
<path d="M33.4834 16.9986H32.3112V18.202H33.4834V16.9986Z" fill="#568417"/>
<path d="M33.4834 15.8023H32.3112V17.0056H33.4834V15.8023Z" fill="#2E6500"/>
<path d="M33.4834 14.5989H32.3112V15.8023H33.4834V14.5989Z" fill="#2E6500"/>
<path d="M33.4834 13.4025H32.3112V14.5989H33.4834V13.4025Z" fill="#2E6500"/>
<path d="M33.4834 12.1992H32.3112V13.4025H33.4834V12.1992Z" fill="#2E4700"/>
<path d="M33.4834 11.0028H32.3112V12.2062H33.4834V11.0028Z" fill="#E8C517"/>
<path d="M33.4834 9.79944H32.3112V11.0028H33.4834V9.79944Z" fill="#E8C517"/>
<path d="M33.4834 8.59606H32.3112V9.79944H33.4834V8.59606Z" fill="#E8C517"/>
<path d="M33.4834 7.39972H32.3112V8.59606H33.4834V7.39972Z" fill="#D3E59A"/>
<path d="M33.4834 6.20338H32.3112V7.40676H33.4834V6.20338Z" fill="#D3E59A"/>
<path d="M33.4834 5H32.3112V6.20338H33.4834V5Z" fill="#2E6500"/>
<path d="M32.3112 19.3983H31.139V20.6017H32.3112V19.3983Z" fill="#568417"/>
<path d="M32.3112 18.202H31.139V19.4053H32.3112V18.202Z" fill="#568417"/>
<path d="M32.3112 16.9986H31.139V18.202H32.3112V16.9986Z" fill="#568417"/>
<path d="M32.3112 15.8023H31.139V17.0056H32.3112V15.8023Z" fill="#2E6500"/>
<path d="M32.3112 14.5989H31.139V15.8023H32.3112V14.5989Z" fill="#2E6500"/>
<path d="M32.3112 13.4025H31.139V14.5989H32.3112V13.4025Z" fill="#2E6500"/>
<path d="M32.3112 12.1992H31.139V13.4025H32.3112V12.1992Z" fill="#2E4700"/>
<path d="M32.3112 11.0028H31.139V12.2062H32.3112V11.0028Z" fill="#E8C517"/>
<path d="M32.3112 9.79944H31.139V11.0028H32.3112V9.79944Z" fill="#E8C517"/>
<path d="M32.3112 8.59606H31.139V9.79944H32.3112V8.59606Z" fill="black"/>
<path d="M32.3112 7.39972H31.139V8.59606H32.3112V7.39972Z" fill="black"/>
<path d="M32.3112 6.20338H31.139V7.40676H32.3112V6.20338Z" fill="#E8C517"/>
<path d="M32.3112 5H31.139V6.20338H32.3112V5Z" fill="#2E6500"/>
<path d="M31.139 21.798H29.9668V23.0014H31.139V21.798Z" fill="#AE9B17"/>
<path d="M31.139 20.6017H29.9668V21.798H31.139V20.6017Z" fill="#AE9B17"/>
<path d="M31.139 19.3983H29.9668V20.6017H31.139V19.3983Z" fill="#AE9B17"/>
<path d="M31.139 18.202H29.9668V19.4053H31.139V18.202Z" fill="#9A7C7B"/>
<path d="M31.139 16.9986H29.9668V18.202H31.139V16.9986Z" fill="#2E6500"/>
<path d="M31.139 15.8023H29.9668V17.0056H31.139V15.8023Z" fill="#2E6500"/>
<path d="M31.139 14.5989H29.9668V15.8023H31.139V14.5989Z" fill="#2E6500"/>
<path d="M31.139 13.4025H29.9668V14.5989H31.139V13.4025Z" fill="#2E6500"/>
<path d="M31.139 12.1992H29.9668V13.4025H31.139V12.1992Z" fill="#2E4700"/>
<path d="M31.139 11.0028H29.9668V12.2062H31.139V11.0028Z" fill="#E8C517"/>
<path d="M31.139 9.79944H29.9668V11.0028H31.139V9.79944Z" fill="#E8C517"/>
<path d="M31.139 8.59606H29.9668V9.79944H31.139V8.59606Z" fill="#E8C517"/>
<path d="M31.139 7.39972H29.9668V8.59606H31.139V7.39972Z" fill="#E8C517"/>
<path d="M31.139 6.20338H29.9668V7.40676H31.139V6.20338Z" fill="#E8C517"/>
<path d="M31.139 5H29.9668V6.20338H31.139V5Z" fill="#2E6500"/>
<path d="M29.9668 24.1977H28.7946V25.4011H29.9668V24.1977Z" fill="#AE9B17"/>
<path d="M29.9668 23.0014H28.7946V24.2048H29.9668V23.0014Z" fill="#AE9B17"/>
<path d="M29.9668 21.798H28.7946V23.0014H29.9668V21.798Z" fill="#AE9B17"/>
<path d="M29.9668 20.6017H28.7946V21.798H29.9668V20.6017Z" fill="#9A7C7B"/>
<path d="M29.9668 19.3983H28.7946V20.6017H29.9668V19.3983Z" fill="#9A7C7B"/>
<path d="M29.9668 18.202H28.7946V19.4053H29.9668V18.202Z" fill="#9A7C7B"/>
<path d="M29.9668 16.9986H28.7946V18.202H29.9668V16.9986Z" fill="#4F3F46"/>
<path d="M29.9668 15.8023H28.7946V17.0056H29.9668V15.8023Z" fill="#4F3F46"/>
<path d="M29.9668 14.5989H28.7946V15.8023H29.9668V14.5989Z" fill="#4F3F46"/>
<path d="M29.9668 13.4025H28.7946V14.5989H29.9668V13.4025Z" fill="#2E6500"/>
<path d="M29.9668 12.1992H28.7946V13.4025H29.9668V12.1992Z" fill="#2E4700"/>
<path d="M29.9668 11.0028H28.7946V12.2062H29.9668V11.0028Z" fill="#2E4700"/>
<path d="M29.9668 9.79944H28.7946V11.0028H29.9668V9.79944Z" fill="#2E4700"/>
<path d="M29.9668 8.59606H28.7946V9.79944H29.9668V8.59606Z" fill="#568C17"/>
<path d="M29.9668 7.39972H28.7946V8.59606H29.9668V7.39972Z" fill="#568C17"/>
<path d="M29.9668 6.20338H28.7946V7.40676H29.9668V6.20338Z" fill="#568C17"/>
<path d="M29.9668 5H28.7946V6.20338H29.9668V5Z" fill="#2E6500"/>
<path d="M28.7946 28.9972H27.6224V30.2006H28.7946V28.9972Z" fill="#AE9B17"/>
<path d="M28.7946 27.8008H27.6224V29.0042H28.7946V27.8008Z" fill="#AE9B17"/>
<path d="M28.7946 26.5975H27.6224V27.7938H28.7946V26.5975Z" fill="#AE9B17"/>
<path d="M28.7946 25.4011H27.6224V26.6045H28.7946V25.4011Z" fill="#B5B430"/>
<path d="M28.7946 24.1977H27.6224V25.4011H28.7946V24.1977Z" fill="#4F3F46"/>
<path d="M28.7946 23.0014H27.6224V24.2048H28.7946V23.0014Z" fill="#4F3F46"/>
<path d="M28.7946 21.798H27.6224V23.0014H28.7946V21.798Z" fill="#4F3F46"/>
<path d="M28.7946 20.6017H27.6224V21.798H28.7946V20.6017Z" fill="#4F3F46"/>
<path d="M28.7946 19.3983H27.6224V20.6017H28.7946V19.3983Z" fill="#4F3F46"/>
<path d="M28.7946 18.202H27.6224V19.4053H28.7946V18.202Z" fill="#4F3F46"/>
<path d="M28.7946 16.9986H27.6224V18.202H28.7946V16.9986Z" fill="#4F3F46"/>
<path d="M28.7946 15.8023H27.6224V17.0056H28.7946V15.8023Z" fill="#312E46"/>
<path d="M28.7946 14.5989H27.6224V15.8023H28.7946V14.5989Z" fill="#4F3F46"/>
<path d="M28.7946 13.4025H27.6224V14.5989H28.7946V13.4025Z" fill="#4F3F46"/>
<path d="M28.7946 12.1992H27.6224V13.4025H28.7946V12.1992Z" fill="#918C77"/>
<path d="M28.7946 11.0028H27.6224V12.2062H28.7946V11.0028Z" fill="#569B17"/>
<path d="M28.7946 9.79944H27.6224V11.0028H28.7946V9.79944Z" fill="#569B17"/>
<path d="M28.7946 8.59606H27.6224V9.79944H28.7946V8.59606Z" fill="#568C17"/>
<path d="M28.7946 7.39972H27.6224V8.59606H28.7946V7.39972Z" fill="#568C17"/>
<path d="M28.7946 6.20338H27.6224V7.40676H28.7946V6.20338Z" fill="#2E6500"/>
<path d="M28.7946 5H27.6224V6.20338H28.7946V5Z" fill="#2E6500"/>
<path d="M27.6224 30.2006H26.4502V31.4039H27.6224V30.2006Z" fill="#AE9B17"/>
<path d="M27.6224 28.9972H26.4502V30.2006H27.6224V28.9972Z" fill="#AE9B17"/>
<path d="M27.6224 27.8008H26.4502V29.0042H27.6224V27.8008Z" fill="#4F3F46"/>
<path d="M27.6224 26.5975H26.4502V27.7938H27.6224V26.5975Z" fill="#4F3F46"/>
<path d="M27.6224 25.4011H26.4502V26.6045H27.6224V25.4011Z" fill="#B70000"/>
<path d="M27.6224 24.1977H26.4502V25.4011H27.6224V24.1977Z" fill="#B70000"/>
<path d="M27.6224 23.0014H26.4502V24.2048H27.6224V23.0014Z" fill="#B70000"/>
<path d="M27.6224 21.798H26.4502V23.0014H27.6224V21.798Z" fill="#B70000"/>
<path d="M27.6224 20.6017H26.4502V21.798H27.6224V20.6017Z" fill="#4F3F46"/>
<path d="M27.6224 19.3983H26.4502V20.6017H27.6224V19.3983Z" fill="#4F3F46"/>
<path d="M27.6224 18.202H26.4502V19.4053H27.6224V18.202Z" fill="#4F3F46"/>
<path d="M27.6224 16.9986H26.4502V18.202H27.6224V16.9986Z" fill="#312E46"/>
<path d="M27.6224 15.8023H26.4502V17.0056H27.6224V15.8023Z" fill="#312E46"/>
<path d="M27.6224 14.5989H26.4502V15.8023H27.6224V14.5989Z" fill="#312E46"/>
<path d="M27.6224 13.4025H26.4502V14.5989H27.6224V13.4025Z" fill="#BDB8A8"/>
<path d="M27.6224 12.1992H26.4502V13.4025H27.6224V12.1992Z" fill="#918C77"/>
<path d="M27.6224 11.0028H26.4502V12.2062H27.6224V11.0028Z" fill="#569B17"/>
<path d="M27.6224 9.79944H26.4502V11.0028H27.6224V9.79944Z" fill="#79B430"/>
<path d="M27.6224 8.59606H26.4502V9.79944H27.6224V8.59606Z" fill="#568C17"/>
<path d="M27.6224 7.39972H26.4502V8.59606H27.6224V7.39972Z" fill="#568C17"/>
<path d="M27.6224 6.20338H26.4502V7.40676H27.6224V6.20338Z" fill="#2E6500"/>
<path d="M26.4502 31.3969H25.278V32.6003H26.4502V31.3969Z" fill="#AE9B17"/>
<path d="M26.4502 30.2006H25.278V31.4039H26.4502V30.2006Z" fill="#4F3F46"/>
<path d="M26.4502 28.9972H25.278V30.2006H26.4502V28.9972Z" fill="#4F3F46"/>
<path d="M26.4502 27.8008H25.278V29.0042H26.4502V27.8008Z" fill="#B70000"/>
<path d="M26.4502 26.5975H25.278V27.7938H26.4502V26.5975Z" fill="#B70000"/>
<path d="M26.4502 25.4011H25.278V26.6045H26.4502V25.4011Z" fill="#FF2E45"/>
<path d="M26.4502 24.1977H25.278V25.4011H26.4502V24.1977Z" fill="#FF2E45"/>
<path d="M26.4502 23.0014H25.278V24.2048H26.4502V23.0014Z" fill="#FF2E45"/>
<path d="M26.4502 21.798H25.278V23.0014H26.4502V21.798Z" fill="#FF2E45"/>
<path d="M26.4502 20.6017H25.278V21.798H26.4502V20.6017Z" fill="#B70000"/>
<path d="M26.4502 19.3983H25.278V20.6017H26.4502V19.3983Z" fill="#ECE5EB"/>
<path d="M26.4502 18.202H25.278V19.4053H26.4502V18.202Z" fill="#ECE5EB"/>
<path d="M26.4502 16.9986H25.278V18.202H26.4502V16.9986Z" fill="#ECE5EB"/>
<path d="M26.4502 15.8023H25.278V17.0056H26.4502V15.8023Z" fill="#ECE5EB"/>
<path d="M26.4502 14.5989H25.278V15.8023H26.4502V14.5989Z" fill="#D3CAD0"/>
<path d="M26.4502 13.4025H25.278V14.5989H26.4502V13.4025Z" fill="#D3CAD0"/>
<path d="M26.4502 12.1992H25.278V13.4025H26.4502V12.1992Z" fill="#BDB8A8"/>
<path d="M26.4502 11.0028H25.278V12.2062H26.4502V11.0028Z" fill="#569B17"/>
<path d="M26.4502 9.79944H25.278V11.0028H26.4502V9.79944Z" fill="#79B430"/>
<path d="M26.4502 8.59606H25.278V9.79944H26.4502V8.59606Z" fill="#568C17"/>
<path d="M26.4502 7.39972H25.278V8.59606H26.4502V7.39972Z" fill="#568C17"/>
<path d="M26.4502 6.20338H25.278V7.40676H26.4502V6.20338Z" fill="#2E6500"/>
<path d="M25.278 32.6003H24.1058V33.7966H25.278V32.6003Z" fill="#AE9B17"/>
<path d="M25.278 31.3969H24.1058V32.6003H25.278V31.3969Z" fill="#D3E5D0"/>
<path d="M25.278 30.2006H24.1058V31.4039H25.278V30.2006Z" fill="#D3E5D0"/>
<path d="M25.278 28.9972H24.1058V30.2006H25.278V28.9972Z" fill="#F5F1F1"/>
<path d="M25.278 27.8008H24.1058V29.0042H25.278V27.8008Z" fill="#F5F1F1"/>
<path d="M25.278 26.5975H24.1058V27.7938H25.278V26.5975Z" fill="#FF2E45"/>
<path d="M25.278 25.4011H24.1058V26.6045H25.278V25.4011Z" fill="#FF2E45"/>
<path d="M25.278 24.1977H24.1058V25.4011H25.278V24.1977Z" fill="#DF6AA1"/>
<path d="M25.278 23.0014H24.1058V24.2048H25.278V23.0014Z" fill="#E777A9"/>
<path d="M25.278 21.798H24.1058V23.0014H25.278V21.798Z" fill="#FF2E45"/>
<path d="M25.278 20.6017H24.1058V21.798H25.278V20.6017Z" fill="#ECE5EB"/>
<path d="M25.278 19.3983H24.1058V20.6017H25.278V19.3983Z" fill="#ECE5EB"/>
<path d="M25.278 18.202H24.1058V19.4053H25.278V18.202Z" fill="#ECE5EB"/>
<path d="M25.278 16.9986H24.1058V18.202H25.278V16.9986Z" fill="#ECE5EB"/>
<path d="M25.278 15.8023H24.1058V17.0056H25.278V15.8023Z" fill="#ECE5EB"/>
<path d="M25.278 14.5989H24.1058V15.8023H25.278V14.5989Z" fill="#ECE5EB"/>
<path d="M25.278 13.4025H24.1058V14.5989H25.278V13.4025Z" fill="#D3CAD0"/>
<path d="M25.278 12.1992H24.1058V13.4025H25.278V12.1992Z" fill="#BDB8A8"/>
<path d="M25.278 11.0028H24.1058V12.2062H25.278V11.0028Z" fill="#569B17"/>
<path d="M25.278 9.79944H24.1058V11.0028H25.278V9.79944Z" fill="#569B17"/>
<path d="M25.278 8.59606H24.1058V9.79944H25.278V8.59606Z" fill="#79B430"/>
<path d="M25.278 7.39972H24.1058V8.59606H25.278V7.39972Z" fill="#568C17"/>
<path d="M25.278 6.20338H24.1058V7.40676H25.278V6.20338Z" fill="#2E6500"/>
<path d="M24.1058 33.7966H22.9335V35H24.1058V33.7966Z" fill="#AE9B17"/>
<path d="M24.1058 32.6003H22.9335V33.7966H24.1058V32.6003Z" fill="#D3E5D0"/>
<path d="M24.1058 31.3969H22.9335V32.6003H24.1058V31.3969Z" fill="#F5F1F1"/>
<path d="M24.1058 30.2006H22.9335V31.4039H24.1058V30.2006Z" fill="#F5F1F1"/>
<path d="M24.1058 28.9972H22.9335V30.2006H24.1058V28.9972Z" fill="#F5F1F1"/>
<path d="M24.1058 27.8008H22.9335V29.0042H24.1058V27.8008Z" fill="#FF2E45"/>
<path d="M24.1058 26.5975H22.9335V27.7938H24.1058V26.5975Z" fill="#E777A9"/>
<path d="M24.1058 25.4011H22.9335V26.6045H24.1058V25.4011Z" fill="#DF6AA1"/>
<path d="M24.1058 24.1977H22.9335V25.4011H24.1058V24.1977Z" fill="#E777A9"/>
<path d="M24.1058 23.0014H22.9335V24.2048H24.1058V23.0014Z" fill="#FF2E45"/>
<path d="M24.1058 21.798H22.9335V23.0014H24.1058V21.798Z" fill="#FF2E45"/>
<path d="M24.1058 20.6017H22.9335V21.798H24.1058V20.6017Z" fill="#FF2E45"/>
<path d="M24.1058 19.3983H22.9335V20.6017H24.1058V19.3983Z" fill="#FF2E45"/>
<path d="M24.1058 18.202H22.9335V19.4053H24.1058V18.202Z" fill="#B70000"/>
<path d="M24.1058 16.9986H22.9335V18.202H24.1058V16.9986Z" fill="#312E46"/>
<path d="M24.1058 15.8023H22.9335V17.0056H24.1058V15.8023Z" fill="#312E46"/>
<path d="M24.1058 14.5989H22.9335V15.8023H24.1058V14.5989Z" fill="#312E46"/>
<path d="M24.1058 13.4025H22.9335V14.5989H24.1058V13.4025Z" fill="#312E46"/>
<path d="M24.1058 12.1992H22.9335V13.4025H24.1058V12.1992Z" fill="#BDB8A8"/>
<path d="M24.1058 11.0028H22.9335V12.2062H24.1058V11.0028Z" fill="#569B17"/>
<path d="M24.1058 9.79944H22.9335V11.0028H24.1058V9.79944Z" fill="#569B17"/>
<path d="M24.1058 8.59606H22.9335V9.79944H24.1058V8.59606Z" fill="#79B430"/>
<path d="M24.1058 7.39972H22.9335V8.59606H24.1058V7.39972Z" fill="#568C17"/>
<path d="M24.1058 6.20338H22.9335V7.40676H24.1058V6.20338Z" fill="#2E6500"/>
<path d="M22.9335 33.7966H21.7613V35H22.9335V33.7966Z" fill="#AE9B17"/>
<path d="M22.9335 32.6003H21.7613V33.7966H22.9335V32.6003Z" fill="#4F3F46"/>
<path d="M22.9335 31.3969H21.7613V32.6003H22.9335V31.3969Z" fill="#312E46"/>
<path d="M22.9335 30.2006H21.7613V31.4039H22.9335V30.2006Z" fill="#312E46"/>
<path d="M22.9335 28.9972H21.7613V30.2006H22.9335V28.9972Z" fill="#B70000"/>
<path d="M22.9335 27.8008H21.7613V29.0042H22.9335V27.8008Z" fill="#E777A9"/>
<path d="M22.9335 26.5975H21.7613V27.7938H22.9335V26.5975Z" fill="#DF6AA1"/>
<path d="M22.9335 25.4011H21.7613V26.6045H22.9335V25.4011Z" fill="#E777A9"/>
<path d="M22.9335 24.1977H21.7613V25.4011H22.9335V24.1977Z" fill="#FF2E45"/>
<path d="M22.9335 23.0014H21.7613V24.2048H22.9335V23.0014Z" fill="#FF2E45"/>
<path d="M22.9335 21.798H21.7613V23.0014H22.9335V21.798Z" fill="#FF2E45"/>
<path d="M22.9335 20.6017H21.7613V21.798H22.9335V20.6017Z" fill="#FF2E45"/>
<path d="M22.9335 19.3983H21.7613V20.6017H22.9335V19.3983Z" fill="#FF2E45"/>
<path d="M22.9335 18.202H21.7613V19.4053H22.9335V18.202Z" fill="#B70000"/>
<path d="M22.9335 16.9986H21.7613V18.202H22.9335V16.9986Z" fill="#312E46"/>
<path d="M22.9335 15.8023H21.7613V17.0056H22.9335V15.8023Z" fill="#312E46"/>
<path d="M22.9335 14.5989H21.7613V15.8023H22.9335V14.5989Z" fill="#312E46"/>
<path d="M22.9335 13.4025H21.7613V14.5989H22.9335V13.4025Z" fill="#312E46"/>
<path d="M22.9335 12.1992H21.7613V13.4025H22.9335V12.1992Z" fill="#BDB8A8"/>
<path d="M22.9335 11.0028H21.7613V12.2062H22.9335V11.0028Z" fill="#569B17"/>
<path d="M22.9335 9.79944H21.7613V11.0028H22.9335V9.79944Z" fill="#569B17"/>
<path d="M22.9335 8.59606H21.7613V9.79944H22.9335V8.59606Z" fill="#568C17"/>
<path d="M22.9335 7.39972H21.7613V8.59606H22.9335V7.39972Z" fill="#568C17"/>
<path d="M22.9335 6.20338H21.7613V7.40676H22.9335V6.20338Z" fill="#2E6500"/>
<path d="M21.7613 33.7966H20.5891V35H21.7613V33.7966Z" fill="#B5B430"/>
<path d="M21.7613 32.6003H20.5891V33.7966H21.7613V32.6003Z" fill="#4F3F46"/>
<path d="M21.7613 31.3969H20.5891V32.6003H21.7613V31.3969Z" fill="#312E46"/>
<path d="M21.7613 30.2006H20.5891V31.4039H21.7613V30.2006Z" fill="#E777A9"/>
<path d="M21.7613 28.9972H20.5891V30.2006H21.7613V28.9972Z" fill="#E777A9"/>
<path d="M21.7613 27.8008H20.5891V29.0042H21.7613V27.8008Z" fill="#DF6AA1"/>
<path d="M21.7613 26.5975H20.5891V27.7938H21.7613V26.5975Z" fill="#DF6AA1"/>
<path d="M21.7613 25.4011H20.5891V26.6045H21.7613V25.4011Z" fill="#FF2E45"/>
<path d="M21.7613 24.1977H20.5891V25.4011H21.7613V24.1977Z" fill="#FF2E45"/>
<path d="M21.7613 23.0014H20.5891V24.2048H21.7613V23.0014Z" fill="#FF2E45"/>
<path d="M21.7613 21.798H20.5891V23.0014H21.7613V21.798Z" fill="#FF2E45"/>
<path d="M21.7613 20.6017H20.5891V21.798H21.7613V20.6017Z" fill="#FF2E45"/>
<path d="M21.7613 19.3983H20.5891V20.6017H21.7613V19.3983Z" fill="#FF2E45"/>
<path d="M21.7613 18.202H20.5891V19.4053H21.7613V18.202Z" fill="#B70000"/>
<path d="M21.7613 16.9986H20.5891V18.202H21.7613V16.9986Z" fill="#312E46"/>
<path d="M21.7613 15.8023H20.5891V17.0056H21.7613V15.8023Z" fill="#312E46"/>
<path d="M21.7613 14.5989H20.5891V15.8023H21.7613V14.5989Z" fill="#312E46"/>
<path d="M21.7613 13.4025H20.5891V14.5989H21.7613V13.4025Z" fill="#312E46"/>
<path d="M21.7613 12.1992H20.5891V13.4025H21.7613V12.1992Z" fill="#BDB8A8"/>
<path d="M21.7613 11.0028H20.5891V12.2062H21.7613V11.0028Z" fill="#569B17"/>
<path d="M21.7613 9.79944H20.5891V11.0028H21.7613V9.79944Z" fill="#569B17"/>
<path d="M21.7613 8.59606H20.5891V9.79944H21.7613V8.59606Z" fill="#568C17"/>
<path d="M21.7613 7.39972H20.5891V8.59606H21.7613V7.39972Z" fill="#568C17"/>
<path d="M21.7613 6.20338H20.5891V7.40676H21.7613V6.20338Z" fill="#2E6500"/>
<path d="M20.5891 33.7966H19.4169V35H20.5891V33.7966Z" fill="#B5B430"/>
<path d="M20.5891 32.6003H19.4169V33.7966H20.5891V32.6003Z" fill="#4F3F46"/>
<path d="M20.5891 31.3969H19.4169V32.6003H20.5891V31.3969Z" fill="#312E46"/>
<path d="M20.5891 30.2006H19.4169V31.4039H20.5891V30.2006Z" fill="#DF6AA1"/>
<path d="M20.5891 28.9972H19.4169V30.2006H20.5891V28.9972Z" fill="#DF6AA1"/>
<path d="M20.5891 27.8008H19.4169V29.0042H20.5891V27.8008Z" fill="#DF6AA1"/>
<path d="M20.5891 26.5975H19.4169V27.7938H20.5891V26.5975Z" fill="#E777A9"/>
<path d="M20.5891 25.4011H19.4169V26.6045H20.5891V25.4011Z" fill="#FF2E45"/>
<path d="M20.5891 24.1977H19.4169V25.4011H20.5891V24.1977Z" fill="#FF2E45"/>
<path d="M20.5891 23.0014H19.4169V24.2048H20.5891V23.0014Z" fill="#FF2E45"/>
<path d="M20.5891 21.798H19.4169V23.0014H20.5891V21.798Z" fill="#FF2E45"/>
<path d="M20.5891 20.6017H19.4169V21.798H20.5891V20.6017Z" fill="#FF2E45"/>
<path d="M20.5891 19.3983H19.4169V20.6017H20.5891V19.3983Z" fill="#B70000"/>
<path d="M20.5891 18.202H19.4169V19.4053H20.5891V18.202Z" fill="#2E4A00"/>
<path d="M20.5891 16.9986H19.4169V18.202H20.5891V16.9986Z" fill="#2E4A00"/>
<path d="M20.5891 15.8023H19.4169V17.0056H20.5891V15.8023Z" fill="#2E4A00"/>
<path d="M20.5891 14.5989H19.4169V15.8023H20.5891V14.5989Z" fill="#2E4A00"/>
<path d="M20.5891 13.4025H19.4169V14.5989H20.5891V13.4025Z" fill="#312E46"/>
<path d="M20.5891 12.1992H19.4169V13.4025H20.5891V12.1992Z" fill="#BDB8A8"/>
<path d="M20.5891 11.0028H19.4169V12.2062H20.5891V11.0028Z" fill="#569B17"/>
<path d="M20.5891 9.79944H19.4169V11.0028H20.5891V9.79944Z" fill="#569B17"/>
<path d="M20.5891 8.59606H19.4169V9.79944H20.5891V8.59606Z" fill="#568C17"/>
<path d="M20.5891 7.39972H19.4169V8.59606H20.5891V7.39972Z" fill="#568C17"/>
<path d="M20.5891 6.20338H19.4169V7.40676H20.5891V6.20338Z" fill="#2E6500"/>
<path d="M19.4169 33.7966H18.2447V35H19.4169V33.7966Z" fill="#AE9B17"/>
<path d="M19.4169 32.6003H18.2447V33.7966H19.4169V32.6003Z" fill="#4F3F46"/>
<path d="M19.4169 31.3969H18.2447V32.6003H19.4169V31.3969Z" fill="#312E46"/>
<path d="M19.4169 30.2006H18.2447V31.4039H19.4169V30.2006Z" fill="#312E46"/>
<path d="M19.4169 28.9972H18.2447V30.2006H19.4169V28.9972Z" fill="#B70000"/>
<path d="M19.4169 27.8008H18.2447V29.0042H19.4169V27.8008Z" fill="#E777A9"/>
<path d="M19.4169 26.5975H18.2447V27.7938H19.4169V26.5975Z" fill="#DF6AA1"/>
<path d="M19.4169 25.4011H18.2447V26.6045H19.4169V25.4011Z" fill="#E777A9"/>
<path d="M19.4169 24.1977H18.2447V25.4011H19.4169V24.1977Z" fill="#FF2E45"/>
<path d="M19.4169 23.0014H18.2447V24.2048H19.4169V23.0014Z" fill="#FF2E45"/>
<path d="M19.4169 21.798H18.2447V23.0014H19.4169V21.798Z" fill="#FF2E45"/>
<path d="M19.4169 20.6017H18.2447V21.798H19.4169V20.6017Z" fill="#FF2E45"/>
<path d="M19.4169 19.3983H18.2447V20.6017H19.4169V19.3983Z" fill="#FF2E45"/>
<path d="M19.4169 18.202H18.2447V19.4053H19.4169V18.202Z" fill="#B70000"/>
<path d="M19.4169 16.9986H18.2447V18.202H19.4169V16.9986Z" fill="#312E46"/>
<path d="M19.4169 15.8023H18.2447V17.0056H19.4169V15.8023Z" fill="#2E6100"/>
<path d="M19.4169 14.5989H18.2447V15.8023H19.4169V14.5989Z" fill="#2E4A00"/>
<path d="M19.4169 13.4025H18.2447V14.5989H19.4169V13.4025Z" fill="#312E46"/>
<path d="M19.4169 12.1992H18.2447V13.4025H19.4169V12.1992Z" fill="#BDB8A8"/>
<path d="M19.4169 11.0028H18.2447V12.2062H19.4169V11.0028Z" fill="#569B17"/>
<path d="M19.4169 9.79944H18.2447V11.0028H19.4169V9.79944Z" fill="#569B17"/>
<path d="M19.4169 8.59606H18.2447V9.79944H19.4169V8.59606Z" fill="#568C17"/>
<path d="M19.4169 7.39972H18.2447V8.59606H19.4169V7.39972Z" fill="#568C17"/>
<path d="M19.4169 6.20338H18.2447V7.40676H19.4169V6.20338Z" fill="#2E6500"/>
<path d="M18.2447 33.7966H17.0725V35H18.2447V33.7966Z" fill="#AE9B17"/>
<path d="M18.2447 32.6003H17.0725V33.7966H18.2447V32.6003Z" fill="#D3E5D0"/>
<path d="M18.2447 31.3969H17.0725V32.6003H18.2447V31.3969Z" fill="#F5F1F1"/>
<path d="M18.2447 30.2006H17.0725V31.4039H18.2447V30.2006Z" fill="#F5F1F1"/>
<path d="M18.2447 28.9972H17.0725V30.2006H18.2447V28.9972Z" fill="#F5F1F1"/>
<path d="M18.2447 27.8008H17.0725V29.0042H18.2447V27.8008Z" fill="#FF2E45"/>
<path d="M18.2447 26.5975H17.0725V27.7938H18.2447V26.5975Z" fill="#E777A9"/>
<path d="M18.2447 25.4011H17.0725V26.6045H18.2447V25.4011Z" fill="#DF6AA1"/>
<path d="M18.2447 24.1977H17.0725V25.4011H18.2447V24.1977Z" fill="#E777A9"/>
<path d="M18.2447 23.0014H17.0725V24.2048H18.2447V23.0014Z" fill="#FF2E45"/>
<path d="M18.2447 21.798H17.0725V23.0014H18.2447V21.798Z" fill="#FF2E45"/>
<path d="M18.2447 20.6017H17.0725V21.798H18.2447V20.6017Z" fill="#FF2E45"/>
<path d="M18.2447 19.3983H17.0725V20.6017H18.2447V19.3983Z" fill="#FF2E45"/>
<path d="M18.2447 18.202H17.0725V19.4053H18.2447V18.202Z" fill="#B70000"/>
<path d="M18.2447 16.9986H17.0725V18.202H18.2447V16.9986Z" fill="#312E46"/>
<path d="M18.2447 15.8023H17.0725V17.0056H18.2447V15.8023Z" fill="#2E4A00"/>
<path d="M18.2447 14.5989H17.0725V15.8023H18.2447V14.5989Z" fill="#2E6100"/>
<path d="M18.2447 13.4025H17.0725V14.5989H18.2447V13.4025Z" fill="#2E4B00"/>
<path d="M18.2447 12.1992H17.0725V13.4025H18.2447V12.1992Z" fill="#BDB8A8"/>
<path d="M18.2447 11.0028H17.0725V12.2062H18.2447V11.0028Z" fill="#569B17"/>
<path d="M18.2447 9.79944H17.0725V11.0028H18.2447V9.79944Z" fill="#569B17"/>
<path d="M18.2447 8.59606H17.0725V9.79944H18.2447V8.59606Z" fill="#568C17"/>
<path d="M18.2447 7.39972H17.0725V8.59606H18.2447V7.39972Z" fill="#568C17"/>
<path d="M18.2447 6.20338H17.0725V7.40676H18.2447V6.20338Z" fill="#2E6500"/>
<path d="M17.0665 32.6003H15.8942V33.7966H17.0665V32.6003Z" fill="#AE9B17"/>
<path d="M17.0665 31.3969H15.8942V32.6003H17.0665V31.3969Z" fill="#D3E5D0"/>
<path d="M17.0665 30.2006H15.8942V31.4039H17.0665V30.2006Z" fill="#D3E5D0"/>
<path d="M17.0665 28.9972H15.8942V30.2006H17.0665V28.9972Z" fill="#F5F1F1"/>
<path d="M17.0665 27.8008H15.8942V29.0042H17.0665V27.8008Z" fill="#F5F1F1"/>
<path d="M17.0665 26.5975H15.8942V27.7938H17.0665V26.5975Z" fill="#FF2E45"/>
<path d="M17.0665 25.4011H15.8942V26.6045H17.0665V25.4011Z" fill="#B70000"/>
<path d="M17.0665 24.1977H15.8942V25.4011H17.0665V24.1977Z" fill="#E777A9"/>
<path d="M17.0665 23.0014H15.8942V24.2048H17.0665V23.0014Z" fill="#E777A9"/>
<path d="M17.0665 21.798H15.8942V23.0014H17.0665V21.798Z" fill="#FF2E45"/>
<path d="M17.0665 20.6017H15.8942V21.798H17.0665V20.6017Z" fill="#FF2E45"/>
<path d="M17.0665 19.3983H15.8942V20.6017H17.0665V19.3983Z" fill="#FF2E45"/>
<path d="M17.0665 18.202H15.8942V19.4053H17.0665V18.202Z" fill="#B70000"/>
<path d="M17.0665 16.9986H15.8942V18.202H17.0665V16.9986Z" fill="#312E46"/>
<path d="M17.0665 15.8023H15.8942V17.0056H17.0665V15.8023Z" fill="#312E46"/>
<path d="M17.0665 14.5989H15.8942V15.8023H17.0665V14.5989Z" fill="#2E4B00"/>
<path d="M17.0665 13.4025H15.8942V14.5989H17.0665V13.4025Z" fill="#2E4B00"/>
<path d="M17.0665 12.1992H15.8942V13.4025H17.0665V12.1992Z" fill="#BDB8A8"/>
<path d="M17.0665 11.0028H15.8942V12.2062H17.0665V11.0028Z" fill="#569B17"/>
<path d="M17.0665 9.79944H15.8942V11.0028H17.0665V9.79944Z" fill="#569B17"/>
<path d="M17.0665 8.59606H15.8942V9.79944H17.0665V8.59606Z" fill="#568C17"/>
<path d="M17.0665 7.39972H15.8942V8.59606H17.0665V7.39972Z" fill="#568C17"/>
<path d="M17.0665 6.20338H15.8942V7.40676H17.0665V6.20338Z" fill="#2E6500"/>
<path d="M15.8942 31.3969H14.722V32.6003H15.8942V31.3969Z" fill="#AE9B17"/>
<path d="M15.8942 30.2006H14.722V31.4039H15.8942V30.2006Z" fill="#4F3F46"/>
<path d="M15.8942 28.9972H14.722V30.2006H15.8942V28.9972Z" fill="#4F3F46"/>
<path d="M15.8942 27.8008H14.722V29.0042H15.8942V27.8008Z" fill="#B70000"/>
<path d="M15.8942 26.5975H14.722V27.7938H15.8942V26.5975Z" fill="#FF2E45"/>
<path d="M15.8942 25.4011H14.722V26.6045H15.8942V25.4011Z" fill="#FF2E45"/>
<path d="M15.8942 24.1977H14.722V25.4011H15.8942V24.1977Z" fill="#B70000"/>
<path d="M15.8942 23.0014H14.722V24.2048H15.8942V23.0014Z" fill="#B70000"/>
<path d="M15.8942 21.798H14.722V23.0014H15.8942V21.798Z" fill="#FF2E45"/>
<path d="M15.8942 20.6017H14.722V21.798H15.8942V20.6017Z" fill="#ECE5EB"/>
<path d="M15.8942 19.3983H14.722V20.6017H15.8942V19.3983Z" fill="#ECE5EB"/>
<path d="M15.8942 18.202H14.722V19.4053H15.8942V18.202Z" fill="#ECE5EB"/>
<path d="M15.8942 16.9986H14.722V18.202H15.8942V16.9986Z" fill="#ECE5EB"/>
<path d="M15.8942 15.8023H14.722V17.0056H15.8942V15.8023Z" fill="#ECE5EB"/>
<path d="M15.8942 14.5989H14.722V15.8023H15.8942V14.5989Z" fill="#ECE5EB"/>
<path d="M15.8942 13.4025H14.722V14.5989H15.8942V13.4025Z" fill="#D3CAD0"/>
<path d="M15.8942 12.1992H14.722V13.4025H15.8942V12.1992Z" fill="#BDB8A8"/>
<path d="M15.8942 11.0028H14.722V12.2062H15.8942V11.0028Z" fill="#569B17"/>
<path d="M15.8942 9.79944H14.722V11.0028H15.8942V9.79944Z" fill="#569B17"/>
<path d="M15.8942 8.59606H14.722V9.79944H15.8942V8.59606Z" fill="#568C17"/>
<path d="M15.8942 7.39972H14.722V8.59606H15.8942V7.39972Z" fill="#568C17"/>
<path d="M15.8942 6.20338H14.722V7.40676H15.8942V6.20338Z" fill="#2E6500"/>
<path d="M14.722 30.2006H13.5498V31.4039H14.722V30.2006Z" fill="#AE9B17"/>
<path d="M14.722 28.9972H13.5498V30.2006H14.722V28.9972Z" fill="#AE9B17"/>
<path d="M14.722 27.8008H13.5498V29.0042H14.722V27.8008Z" fill="#4F3F46"/>
<path d="M14.722 26.5975H13.5498V27.7938H14.722V26.5975Z" fill="#B70000"/>
<path d="M14.722 25.4011H13.5498V26.6045H14.722V25.4011Z" fill="#FF2E45"/>
<path d="M14.722 24.1977H13.5498V25.4011H14.722V24.1977Z" fill="#FF2E45"/>
<path d="M14.722 23.0014H13.5498V24.2048H14.722V23.0014Z" fill="#FF2E45"/>
<path d="M14.722 21.798H13.5498V23.0014H14.722V21.798Z" fill="#FF2E45"/>
<path d="M14.722 20.6017H13.5498V21.798H14.722V20.6017Z" fill="#B70000"/>
<path d="M14.722 19.3983H13.5498V20.6017H14.722V19.3983Z" fill="#ECE5EB"/>
<path d="M14.722 18.202H13.5498V19.4053H14.722V18.202Z" fill="#ECE5EB"/>
<path d="M14.722 16.9986H13.5498V18.202H14.722V16.9986Z" fill="#ECE5EB"/>
<path d="M14.722 15.8023H13.5498V17.0056H14.722V15.8023Z" fill="#ECE5EB"/>
<path d="M14.722 14.5989H13.5498V15.8023H14.722V14.5989Z" fill="#D3CAD0"/>
<path d="M14.722 13.4025H13.5498V14.5989H14.722V13.4025Z" fill="#D3CAD0"/>
<path d="M14.722 12.1992H13.5498V13.4025H14.722V12.1992Z" fill="#BDB8A8"/>
<path d="M14.722 11.0028H13.5498V12.2062H14.722V11.0028Z" fill="#569B17"/>
<path d="M14.722 9.79944H13.5498V11.0028H14.722V9.79944Z" fill="#569B17"/>
<path d="M14.722 8.59606H13.5498V9.79944H14.722V8.59606Z" fill="#568C17"/>
<path d="M14.722 7.39972H13.5498V8.59606H14.722V7.39972Z" fill="#568C17"/>
<path d="M14.722 6.20338H13.5498V7.40676H14.722V6.20338Z" fill="#2E6500"/>
<path d="M13.5498 28.9972H12.3776V30.2006H13.5498V28.9972Z" fill="#AE9B17"/>
<path d="M13.5498 27.8008H12.3776V29.0042H13.5498V27.8008Z" fill="#4F3F46"/>
<path d="M13.5498 26.5975H12.3776V27.7938H13.5498V26.5975Z" fill="#4F3F46"/>
<path d="M13.5498 25.4011H12.3776V26.6045H13.5498V25.4011Z" fill="#B70000"/>
<path d="M13.5498 24.1977H12.3776V25.4011H13.5498V24.1977Z" fill="#B70000"/>
<path d="M13.5498 23.0014H12.3776V24.2048H13.5498V23.0014Z" fill="#B70000"/>
<path d="M13.5498 21.798H12.3776V23.0014H13.5498V21.798Z" fill="#B70000"/>
<path d="M13.5498 20.6017H12.3776V21.798H13.5498V20.6017Z" fill="#4F3F46"/>
<path d="M13.5498 19.3983H12.3776V20.6017H13.5498V19.3983Z" fill="#4F3F46"/>
<path d="M13.5498 18.202H12.3776V19.4053H13.5498V18.202Z" fill="#4F3F46"/>
<path d="M13.5498 16.9986H12.3776V18.202H13.5498V16.9986Z" fill="#312E46"/>
<path d="M13.5498 15.8023H12.3776V17.0056H13.5498V15.8023Z" fill="#312E46"/>
<path d="M13.5498 14.5989H12.3776V15.8023H13.5498V14.5989Z" fill="#312E46"/>
<path d="M13.5498 13.4025H12.3776V14.5989H13.5498V13.4025Z" fill="#BDB8A8"/>
<path d="M13.5498 12.1992H12.3776V13.4025H13.5498V12.1992Z" fill="#918C77"/>
<path d="M13.5498 11.0028H12.3776V12.2062H13.5498V11.0028Z" fill="#569B17"/>
<path d="M13.5498 9.79944H12.3776V11.0028H13.5498V9.79944Z" fill="#569B17"/>
<path d="M13.5498 8.59606H12.3776V9.79944H13.5498V8.59606Z" fill="#568C17"/>
<path d="M13.5498 7.39972H12.3776V8.59606H13.5498V7.39972Z" fill="#568C17"/>
<path d="M13.5498 6.20338H12.3776V7.40676H13.5498V6.20338Z" fill="#2E6500"/>
<path d="M13.5498 5H12.3776V6.20338H13.5498V5Z" fill="#2E6500"/>
<path d="M12.3776 27.8008H11.2054V29.0042H12.3776V27.8008Z" fill="#AE9B17"/>
<path d="M12.3776 26.5975H11.2054V27.7938H12.3776V26.5975Z" fill="#AE9B17"/>
<path d="M12.3776 25.4011H11.2054V26.6045H12.3776V25.4011Z" fill="#B5B430"/>
<path d="M12.3776 24.1977H11.2054V25.4011H12.3776V24.1977Z" fill="#4F3F46"/>
<path d="M12.3776 23.0014H11.2054V24.2048H12.3776V23.0014Z" fill="#4F3F46"/>
<path d="M12.3776 21.798H11.2054V23.0014H12.3776V21.798Z" fill="#4F3F46"/>
<path d="M12.3776 20.6017H11.2054V21.798H12.3776V20.6017Z" fill="#4F3F46"/>
<path d="M12.3776 19.3983H11.2054V20.6017H12.3776V19.3983Z" fill="#4F3F46"/>
<path d="M12.3776 18.202H11.2054V19.4053H12.3776V18.202Z" fill="#4F3F46"/>
<path d="M12.3776 16.9986H11.2054V18.202H12.3776V16.9986Z" fill="#4F3F46"/>
<path d="M12.3776 15.8023H11.2054V17.0056H12.3776V15.8023Z" fill="#312E46"/>
<path d="M12.3776 14.5989H11.2054V15.8023H12.3776V14.5989Z" fill="#4F3F46"/>
<path d="M12.3776 13.4025H11.2054V14.5989H12.3776V13.4025Z" fill="#4F3F46"/>
<path d="M12.3776 12.1992H11.2054V13.4025H12.3776V12.1992Z" fill="#918C77"/>
<path d="M12.3776 11.0028H11.2054V12.2062H12.3776V11.0028Z" fill="#569B17"/>
<path d="M12.3776 9.79944H11.2054V11.0028H12.3776V9.79944Z" fill="#569B17"/>
<path d="M12.3776 8.59606H11.2054V9.79944H12.3776V8.59606Z" fill="#568C17"/>
<path d="M12.3776 7.39972H11.2054V8.59606H12.3776V7.39972Z" fill="#568C17"/>
<path d="M12.3776 6.20338H11.2054V7.40676H12.3776V6.20338Z" fill="#568C17"/>
<path d="M12.3776 5H11.2054V6.20338H12.3776V5Z" fill="#2E6500"/>
<path d="M11.2054 24.1977H10.0332V25.4011H11.2054V24.1977Z" fill="#AE9B17"/>
<path d="M11.2054 23.0014H10.0332V24.2048H11.2054V23.0014Z" fill="#AE9B17"/>
<path d="M11.2054 21.798H10.0332V23.0014H11.2054V21.798Z" fill="#AE9B17"/>
<path d="M11.2054 20.6017H10.0332V21.798H11.2054V20.6017Z" fill="#9A7C7B"/>
<path d="M11.2054 19.3983H10.0332V20.6017H11.2054V19.3983Z" fill="#9A7C7B"/>
<path d="M11.2054 18.202H10.0332V19.4053H11.2054V18.202Z" fill="#9A7C7B"/>
<path d="M11.2054 16.9986H10.0332V18.202H11.2054V16.9986Z" fill="#4F3F46"/>
<path d="M11.2054 15.8023H10.0332V17.0056H11.2054V15.8023Z" fill="#4F3F46"/>
<path d="M11.2054 14.5989H10.0332V15.8023H11.2054V14.5989Z" fill="#4F3F46"/>
<path d="M11.2054 13.4025H10.0332V14.5989H11.2054V13.4025Z" fill="#2E6500"/>
<path d="M11.2054 12.1992H10.0332V13.4025H11.2054V12.1992Z" fill="#2E4700"/>
<path d="M11.2054 11.0028H10.0332V12.2062H11.2054V11.0028Z" fill="#2E4700"/>
<path d="M11.2054 9.79944H10.0332V11.0028H11.2054V9.79944Z" fill="#2E4700"/>
<path d="M11.2054 8.59606H10.0332V9.79944H11.2054V8.59606Z" fill="#568C17"/>
<path d="M11.2054 7.39972H10.0332V8.59606H11.2054V7.39972Z" fill="#568C17"/>
<path d="M11.2054 6.20338H10.0332V7.40676H11.2054V6.20338Z" fill="#568C17"/>
<path d="M10.0332 20.6017H8.86102V21.798H10.0332V20.6017Z" fill="#AE9B17"/>
<path d="M11.2054 5H10.0332V6.20338H11.2054V5Z" fill="#2E6500"/>
<path d="M10.0332 21.798H8.86102V23.0014H10.0332V21.798Z" fill="#AE9B17"/>
<path d="M10.0332 19.3983H8.86102V20.6017H10.0332V19.3983Z" fill="#AE9B17"/>
<path d="M10.0332 18.202H8.86102V19.4053H10.0332V18.202Z" fill="#9A7C7B"/>
<path d="M10.0332 16.9986H8.86102V18.202H10.0332V16.9986Z" fill="#2E6500"/>
<path d="M10.0332 15.8023H8.86102V17.0056H10.0332V15.8023Z" fill="#2E6500"/>
<path d="M10.0332 14.5989H8.86102V15.8023H10.0332V14.5989Z" fill="#2E6500"/>
<path d="M10.0332 13.4025H8.86102V14.5989H10.0332V13.4025Z" fill="#2E6500"/>
<path d="M10.0332 12.1992H8.86102V13.4025H10.0332V12.1992Z" fill="#2E4700"/>
<path d="M10.0332 11.0028H8.86102V12.2062H10.0332V11.0028Z" fill="#E8C517"/>
<path d="M10.0332 9.79944H8.86102V11.0028H10.0332V9.79944Z" fill="#E8C517"/>
<path d="M10.0332 8.59606H8.86102V9.79944H10.0332V8.59606Z" fill="#E8C517"/>
<path d="M10.0332 7.39972H8.86102V8.59606H10.0332V7.39972Z" fill="#E8C517"/>
<path d="M10.0332 6.20338H8.86102V7.40676H10.0332V6.20338Z" fill="#E8C517"/>
<path d="M10.0332 5H8.86102V6.20338H10.0332V5Z" fill="#2E6500"/>
<path d="M8.86102 19.3983H7.68882V20.6017H8.86102V19.3983Z" fill="#568417"/>
<path d="M8.86102 18.202H7.68882V19.4053H8.86102V18.202Z" fill="#568417"/>
<path d="M8.86102 16.9986H7.68882V18.202H8.86102V16.9986Z" fill="#568417"/>
<path d="M8.86102 15.8023H7.68882V17.0056H8.86102V15.8023Z" fill="#2E6500"/>
<path d="M8.86102 14.5989H7.68882V15.8023H8.86102V14.5989Z" fill="#2E6500"/>
<path d="M8.86102 13.4025H7.68882V14.5989H8.86102V13.4025Z" fill="#2E6500"/>
<path d="M8.86102 12.1992H7.68882V13.4025H8.86102V12.1992Z" fill="#2E4700"/>
<path d="M8.86102 11.0028H7.68882V12.2062H8.86102V11.0028Z" fill="#E8C517"/>
<path d="M8.86102 9.79944H7.68882V11.0028H8.86102V9.79944Z" fill="#E8C517"/>
<path d="M8.86102 8.59606H7.68882V9.79944H8.86102V8.59606Z" fill="black"/>
<path d="M8.86102 7.39972H7.68882V8.59606H8.86102V7.39972Z" fill="black"/>
<path d="M8.86102 6.20338H7.68882V7.40676H8.86102V6.20338Z" fill="#E8C517"/>
<path d="M8.86102 5H7.68882V6.20338H8.86102V5Z" fill="#2E6500"/>
<path d="M7.68882 18.202H6.51661V19.4053H7.68882V18.202Z" fill="#568417"/>
<path d="M7.68882 16.9986H6.51661V18.202H7.68882V16.9986Z" fill="#568417"/>
<path d="M7.68882 15.8023H6.51661V17.0056H7.68882V15.8023Z" fill="#2E6500"/>
<path d="M7.68882 14.5989H6.51661V15.8023H7.68882V14.5989Z" fill="#2E6500"/>
<path d="M7.68882 13.4025H6.51661V14.5989H7.68882V13.4025Z" fill="#2E6500"/>
<path d="M7.68882 12.1992H6.51661V13.4025H7.68882V12.1992Z" fill="#2E4700"/>
<path d="M7.68882 11.0028H6.51661V12.2062H7.68882V11.0028Z" fill="#E8C517"/>
<path d="M7.68882 9.79944H6.51661V11.0028H7.68882V9.79944Z" fill="#E8C517"/>
<path d="M7.68882 8.59606H6.51661V9.79944H7.68882V8.59606Z" fill="#E8C517"/>
<path d="M7.68882 7.39972H6.51661V8.59606H7.68882V7.39972Z" fill="#D3E59A"/>
<path d="M7.68882 6.20338H6.51661V7.40676H7.68882V6.20338Z" fill="#D3E59A"/>
<path d="M7.68882 5H6.51661V6.20338H7.68882V5Z" fill="#2E6500"/>
<path d="M6.51661 15.8023H5.34441V17.0056H6.51661V15.8023Z" fill="#2E6500"/>
<path d="M6.51661 14.5989H5.34441V15.8023H6.51661V14.5989Z" fill="#2E6500"/>
<path d="M6.51661 13.4025H5.34441V14.5989H6.51661V13.4025Z" fill="#568417"/>
<path d="M6.51661 12.1992H5.34441V13.4025H6.51661V12.1992Z" fill="#2E6500"/>
<path d="M6.51661 11.0028H5.34441V12.2062H6.51661V11.0028Z" fill="#2E6500"/>
<path d="M6.51661 9.79944H5.34441V11.0028H6.51661V9.79944Z" fill="#2E6500"/>
<path d="M6.51661 8.59606H5.34441V9.79944H6.51661V8.59606Z" fill="#2E6500"/>
<path d="M6.51661 7.39972H5.34441V8.59606H6.51661V7.39972Z" fill="#2E6500"/>
<path d="M6.51661 6.20338H5.34441V7.40676H6.51661V6.20338Z" fill="#2E6500"/>
<path d="M5.34441 13.4025H4.1722V14.5989H5.34441V13.4025Z" fill="#568417"/>
<path d="M5.34441 12.1992H4.1722V13.4025H5.34441V12.1992Z" fill="#2E6500"/>
<path d="M5.34441 11.0028H4.1722V12.2062H5.34441V11.0028Z" fill="#2E6500"/>
<path d="M5.34441 9.79944H4.1722V11.0028H5.34441V9.79944Z" fill="#2E6500"/>
<path d="M4.1722 13.4025H3V14.5989H4.1722V13.4025Z" fill="#568417"/>
<path d="M4.1722 12.1992H3V13.4025H4.1722V12.1992Z" fill="#2E6500"/>
<path d="M4.1722 11.0028H3V12.2062H4.1722V11.0028Z" fill="#79B430"/>
<path d="M4.1722 9.79944H3V11.0028H4.1722V9.79944Z" fill="#2E6500"/>
</g>
</g>
<defs>
<clipPath id="clip0_0_1">
</clipPath>
<clipPath id="clip1_0_1">
</clipPath>
</defs>
</svg>
